{
  "extensionsUsed": [
    "KHR_texture_transform"
  ],
  "accessors": [
    {
      "bufferView": 0,
      "componentType": 5126,
      "count": 121,
      "type": "VEC3",
      "max": [
        5.0,
        1.1102230246251565E-16,
        5.0
      ],
      "min": [
        -5.0,
        -1.1102230246251565E-16,
        -5.0
      ]
    },
    {
      "bufferView": 1,
      "componentType": 5126,
      "count": 121,
      "type": "VEC3",
      "max": [
        0.0,
        1.0,
        0.0
      ],
      "min": [
        0.0,
        1.0,
        0.0
      ]
    },
    {
      "bufferView": 2,
      "componentType": 5126,
      "count": 121,
      "type": "VEC4",
      "max": [
        -1.0,
        0.0,
        0.0,
        1.0
      ],
      "min": [
        -1.0,
        0.0,
        0.0,
        1.0
      ]
    },
    {
      "bufferView": 3,
      "componentType": 5126,
      "count": 121,
      "type": "VEC2",
      "max": [
        1.0,
        1.0
      ],
      "min": [
        0.0,
        0.0
      ]
    },
    {
      "bufferView": 4,
      "componentType": 5121,
      "count": 600,
      "type": "SCALAR",
      "max": [
        120.0
      ],
      "min": [
        0.0
      ]
    }
  ],
  "asset": {
    "version": "2.0"
  },
  "buffers": [
    {
      "uri": "demo_grass01.bin",
      "byteLength": 6408
    }
  ],
  "bufferViews": [
    {
      "buffer": 0,
      "byteLength": 1452
    },
    {
      "buffer": 0,
      "byteOffset": 1452,
      "byteLength": 1452
    },
    {
      "buffer": 0,
      "byteOffset": 2904,
      "byteLength": 1936
    },
    {
      "buffer": 0,
      "byteOffset": 4840,
      "byteLength": 968
    },
    {
      "buffer": 0,
      "byteOffset": 5808,
      "byteLength": 600
    }
  ],
  "images": [
    {
      "uri": "Grass_001_NORM.png",
      "name": "Grass_001_NORM"
    },
    {
      "uri": "Grass_001_COLOR.png",
      "name": "Grass_001_COLOR"
    },
    {
      "uri": "Grass_001_ROUGH.png",
      "name": "Grass_001_ROUGH"
    }
  ],
  "materials": [
    {
      "pbrMetallicRoughness": {
        "baseColorFactor": [
          0.7735849,
          0.7735849,
          0.7735849,
          1.0
        ],
        "baseColorTexture": {
          "index": 1,
          "extensions": {
            "KHR_texture_transform": {
              "scale": [
                100.0,
                100.0
              ]
            }
          }
        },
        "metallicFactor": 0.0,
        "roughnessFactor": 0.3,
        "metallicRoughnessTexture": {
          "index": 2,
          "extensions": {
            "KHR_texture_transform": {
              "scale": [
                100.0,
                100.0
              ]
            }
          }          
        }
      },
      "normalTexture": {
        "index": 0,
        "extensions": {
          "KHR_texture_transform": {
            "scale": [
              100.0,
              100.0
            ]
          }
        }        
      },
      "name": "grass01"
    }
  ],
  "meshes": [
    {
      "primitives": [
        {
          "attributes": {
            "POSITION": 0,
            "NORMAL": 1,
            "TANGENT": 2,
            "TEXCOORD_0": 3
          },
          "indices": 4,
          "material": 0
        }
      ],
      "name": "Plane"
    }
  ],
  "nodes": [
    {
      "children": [
        1
      ],
      "rotation": [
        0.0,
        0.0,
        0.0,
        -1.0
      ],
      "name": "demo_grass01"
    },
    {
      "mesh": 0,
      "rotation": [
        0.0,
        0.0,
        0.0,
        -1.0
      ],
      "scale": [
        10.0,
        1.0,
        10.0
      ],
      "name": "Plane"
    }
  ],
  "samplers": [
    {}
  ],
  "scene": 0,
  "scenes": [
    {
      "nodes": [
        0
      ],
      "name": "demo_grass01"
    }
  ],
  "textures": [
    {
      "sampler": 0,
      "source": 0,
      "name": "Grass_001_NORM"
    },
    {
      "sampler": 0,
      "source": 1,
      "name": "Grass_001_COLOR"
    },
    {
      "sampler": 0,
      "source": 2,
      "name": "Grass_001_ROUGH"
    }
  ]
}